# xmcd CD database file
#
# Track frame offsets:
#	150
#	15186
#	29975
#	42587
#	57034
#	76724
#	96560
#	110026
#	123724
#	137337
#	147571
#	161059
#	172665
#	200752
#	214953
#	229803
#	245645
#	258050
#	275201
#
# Disc length: 3871 seconds
#
# Revision: 0
# Processed by: cddbd v1.5.1PL0 Copyright (c) Steve Scherf et al.
# Submitted via: CDex 1.51
#
DISCID=1d0f1d13
DTITLE=Various Artist - Jazz Plays Films
DYEAR=1900
DGENRE=Jazz
TTITLE0=Tony Martin - Guilty
TTITLE1=Artie Shaw - Begin the Beguine
TTITLE2=Nat King Cole - Papa Loves Mambo
TTITLE3=Dinah Shore - Mood Indigo
TTITLE4=Con Sentido Cubano - Chan Chan
TTITLE5=Ella Fitzgerald - Mack the Knife
TTITLE6=Mel Torme - Makin' Whoopee
TTITLE7=Mel Torme - Waht's This Thing Called Love
TTITLE8=Frank Trumbauer - S' Wonderful
TTITLE9=Caravan fr Ocean's Eleven
TTITLE10=Louis Armstrong - Blueberry Hill
TTITLE11=Ella Fitzgerald - Flying Home
TTITLE12=Sarah Vaughan - Alfie
TTITLE13=Bob Hope - Thank for the Memory
TTITLE14=Al Bowlly - Guilty
TTITLE15=Toni Martin - The Last Time I Saw Paris
TTITLE16=Carbaret from Cabaret
TTITLE17=Frank Sinatra - I Only Have Eyes for You
TTITLE18=Sidney Bechet - Love for Sale
EXTD=
EXTT0=
EXTT1=
EXTT2=
EXTT3=
EXTT4=
EXTT5=
EXTT6=
EXTT7=
EXTT8=
EXTT9=
EXTT10=
EXTT11=
EXTT12=
EXTT13=
EXTT14=
EXTT15=
EXTT16=
EXTT17=
EXTT18=
PLAYORDER=
